<svg width="800" height="228.45517" xmlns="http://www.w3.org/2000/svg" version="1.1" xml:space="preserve">
 <metadata id="metadata8">image/svg+xml</metadata>
 <defs id="defs6">
  <clipPath id="clipPath18">
   <path d="m0,72.756l411.024,0l0,494.173l-411.024,0l0,-494.173z" id="path20"/>
  </clipPath>
  <clipPath id="clipPath44">
   <path d="m0,-0.15236l411.024,0l0,566.929l-411.024,0l0,-566.929z" id="path46"/>
  </clipPath>
  <clipPath id="clipPath58">
   <path d="m0,-0.15236l411.024,0l0,566.929l-411.024,0l0,-566.929z" id="path60"/>
  </clipPath>
 </defs>
 <g>
  <title>Layer 1</title>
  <g transform="matrix(6.56329 0 0 -6.56329 -948.836 372.092)" id="g40" fill="#004a8f">
   <g clip-path="url(#clipPath44)" id="g42" fill="#004a8f">
    <g id="g48" fill="#004a8f">
     <path d="m197.27,25.5314l3.223,0.002l0,8.088l-6.964,0l0,-2.782l3.604,-0.015c-0.699,-1.263 -1.627,-2.449 -3.284,-2.433c-1.825,-0.091 -3.619,1.444 -3.665,3.984c-0.076,2.751 1.84,4.212 3.544,4.15c1.048,-0.045 2.311,-0.607 2.691,-1.764l3.299,1.566c-1.399,2.326 -3.679,3.513 -5.869,3.421c-4.121,0.031 -7.375,-2.539 -7.512,-7.221c0,-4.486 3.544,-6.994 6.6,-7.177c1.916,-0.106 3.466,0.623 4.333,1.733l0,-1.552zm5.625,-0.013l9.564,0l0,3.025l-5.778,0l0,2.722l4.865,0l0,2.934l-4.849,0l0,2.388l5.762,0l0,3.07l-9.564,0l0,-14.139zm51.717,14.139l0.016,-8.848c0,-3.422 2.083,-5.367 5.93,-5.291c3.725,0.076 5.579,1.718 5.899,5.26l0,8.879l-3.741,0l0,-8.453c0.091,-1.429 -0.638,-2.326 -2.158,-2.372c-1.414,-0.03 -2.357,0.715 -2.235,2.372l0,8.453l-3.711,0zm-34.706,-6.642c1.178,0.107 1.699,0.704 1.73,1.806c0.03,1.041 -0.459,1.73 -1.73,1.852c-0.276,0.031 -0.582,0.015 -0.918,0l-0.796,0l0,-3.627l1.178,-0.031c0.184,-0.015 0.367,-0.015 0.536,0m0,6.627c1.469,-0.046 2.647,-0.214 3.627,-0.934c1.102,-0.857 1.668,-2.035 1.668,-3.519c0,-2.204 -1.148,-3.55 -3.244,-4.04l4.086,-5.631l-4.576,0l-1.561,2.432l-1.714,2.694l0,-5.126l-3.703,0l0,14.139l4.377,0c0.351,0 0.703,-0.015 1.04,-0.015m13.561,-0.046c1.223,-0.123 2.233,-0.474 3.122,-1.086c1.668,-1.255 2.922,-3.184 2.998,-5.937c-0.076,-3.231 -1.682,-5.265 -3.442,-6.244c-0.751,-0.369 -1.608,-0.614 -2.678,-0.735c-0.521,-0.061 -1.072,-0.076 -1.684,-0.076l-4.209,0l0,14.139l4.928,0c0.321,-0.015 0.643,-0.03 0.965,-0.061m0,-10.651c1.331,0.322 2.204,1.377 2.142,3.719c-0.061,2.203 -0.858,3.228 -2.142,3.566c-0.291,0.076 -0.613,0.122 -0.934,0.136l-1.209,0l0,-7.512l1.163,0c0.336,0 0.673,0.03 0.98,0.091m13.246,10.697l2.142,0l5.187,-14.124l-4.055,0l-0.765,2.601l-2.509,0l-2.541,0l-0.704,-2.601l-3.994,0l4.897,14.124l2.342,0zm0,-8.6l1.652,0l-1.652,4.989l-0.108,0.337l-1.546,-5.326l1.654,0z" id="path50" fill-rule="nonzero" fill="#ffffff"/>
    </g>
   </g>
  </g>
  <path d="m-0.00026,-0.0004l228.45516,0l0,228.45516l-228.45516,0l0,-228.45516z" id="path52" fill-rule="nonzero" fill="#004a8f"/>
  <g transform="matrix(6.56329 0 0 -6.56329 -948.836 372.092)" id="g54" fill="#ffffff">
   <g clip-path="url(#clipPath58)" id="g56" fill="#ffffff">
    <g id="g62" fill="#ffffff">
     <path d="m161.5399,25.7198l-2.441,0l0,1.158c-0.908,-0.839 -2.185,-1.51 -3.946,-1.51c-4.714,0 -7.077,3.863 -7.077,7.193c0,3.328 2.339,7.202 7.005,7.202c4.667,0 6.433,-4.172 6.433,-4.172l-2.113,-1.266c0,0 -1.455,2.759 -4.272,2.759c-2.817,0 -4.452,-2.435 -4.452,-4.523c0,-2.089 1.66,-4.5 4.5,-4.5c1.968,0 3.089,1.198 3.591,1.933l-3.617,0l0,2.578l6.389,0l0,-6.852z" id="path64" fill-rule="nonzero" fill="#ffffff"/>
    </g>
    <g id="g66" fill="#ffffff">
     <path d="m162.4496,32.5714l6.393,0l0,-2.579l-3.619,0c0.502,-0.735 1.624,-1.935 3.593,-1.935c2.842,0 4.503,2.413 4.503,4.503c0,2.089 -1.637,4.526 -4.455,4.526c-2.818,0 -4.275,-2.76 -4.275,-2.76l-2.114,1.266c0,0 1.767,4.175 6.437,4.175c4.669,0 7.01,-3.876 7.01,-7.207c0,-3.332 -2.365,-7.197 -7.082,-7.197c-1.763,0 -3.04,0.671 -3.949,1.511l0,-1.159l-2.442,0l0,6.856z" id="path68" fill-rule="nonzero" fill="#ffffff"/>
    </g>
   </g>
  </g>
 </g>
</svg>